<?xml version="1.0" encoding="UTF-8" standalone="no"?>
<svg width="16px" height="12px" viewBox="0 0 16 12" version="1.1" xmlns="http://www.w3.org/2000/svg" xmlns:xlink="http://www.w3.org/1999/xlink">
    <!-- Generator: Sketch 39.1 (31720) - http://www.bohemiancoding.com/sketch -->
    <title>Group 6</title>
    <desc>Created with Sketch.</desc>
    <defs></defs>
    <g id="Page-1" stroke="none" stroke-width="1" fill="none" fill-rule="evenodd">
        <g id="Group-6" transform="translate(-5.000000, -3.000000)">
            <rect id="Rectangle-4-Copy-3" fill-opacity="0" fill="#D8D8D8" x="0" y="0" width="25" height="17"></rect>
            <g id="Page-1" transform="translate(5.000000, 3.000000)">
                <path d="M1,2 L6,2 L6,1 L1,1 L1,2 Z M7,2 L7,1 C7,0.448 6.552,0 6,0 L1,0 C0.448,0 0,0.448 0,1 L0,12 L14,12 L14,3 C14,2.448 13.552,2 13,2 L7,2 Z" id="Fill-1" fill="#EF815F"></path>
                <polygon id="Fill-3" fill="#B75E47" points="0 12 14 12 16 5 2 5"></polygon>
            </g>
        </g>
    </g>
</svg>