<?xml version="1.0" encoding="UTF-8" standalone="no"?>
<svg width="14px" height="12px" viewBox="0 0 14 12" version="1.1" xmlns="http://www.w3.org/2000/svg" xmlns:xlink="http://www.w3.org/1999/xlink">
    <!-- Generator: Sketch 39.1 (31720) - http://www.bohemiancoding.com/sketch -->
    <title>Group 5</title>
    <desc>Created with Sketch.</desc>
    <defs></defs>
    <g id="Page-1" stroke="none" stroke-width="1" fill="none" fill-rule="evenodd">
        <g id="Group-5" transform="translate(-5.000000, -3.000000)">
            <rect id="Rectangle-4" fill-opacity="0" fill="#D8D8D8" x="0" y="0" width="25" height="17"></rect>
            <path d="M6,5 L11,5 L11,4 L6,4 L6,5 Z M12,5 L12,4 C12,3.448 11.552,3 11,3 L6,3 C5.448,3 5,3.448 5,4 L5,14 C5,14.552 5.448,15 6,15 L18,15 C18.552,15 19,14.552 19,14 L19,6 C19,5.448 18.552,5 18,5 L12,5 Z" id="Page-1" fill="#EF815F"></path>
        </g>
    </g>
</svg>